<?xml version="1.0" encoding="UTF-8" standalone="no"?>
<svg
   xmlns:dc="http://purl.org/dc/elements/1.1/"
   xmlns:cc="http://creativecommons.org/ns#"
   xmlns:rdf="http://www.w3.org/1999/02/22-rdf-syntax-ns#"
   xmlns:svg="http://www.w3.org/2000/svg"
   xmlns="http://www.w3.org/2000/svg"
   xmlns:sodipodi="http://sodipodi.sourceforge.net/DTD/sodipodi-0.dtd"
   xmlns:inkscape="http://www.inkscape.org/namespaces/inkscape"
   id="SvgjsSvg1001"
   width="288"
   height="288"
   version="1.1"
   sodipodi:docname="no-image.svg"
   inkscape:version="1.0.1 (c497b03c, 2020-09-10)">
  <metadata
     id="metadata29">
    <rdf:RDF>
      <cc:Work
         rdf:about="">
        <dc:format>image/svg+xml</dc:format>
        <dc:type
           rdf:resource="http://purl.org/dc/dcmitype/StillImage" />
      </cc:Work>
    </rdf:RDF>
  </metadata>
  <sodipodi:namedview
     pagecolor="#ffffff"
     bordercolor="#666666"
     borderopacity="1"
     objecttolerance="10"
     gridtolerance="10"
     guidetolerance="10"
     inkscape:pageopacity="0"
     inkscape:pageshadow="2"
     inkscape:window-width="1280"
     inkscape:window-height="701"
     id="namedview27"
     showgrid="false"
     inkscape:zoom="1.2689249"
     inkscape:cx="144"
     inkscape:cy="144"
     inkscape:window-x="0"
     inkscape:window-y="23"
     inkscape:window-maximized="1"
     inkscape:current-layer="SvgjsSvg1001" />
  <defs
     id="SvgjsDefs1002" />
  <g
     id="g50"
     transform="translate(-4,-10)">
    <g
       id="SvgjsG1008"
       transform="matrix(0.9167,0,0,0.9167,11.995083,12.370051)">
      <path
         fill="#107a8b"
         d="M 201.95492,42.685603 H 78.792458 a 18.474369,18.680563 0 0 0 -18.47437,18.680563 v 87.175964 a 17.673813,17.871072 0 0 0 1.724274,7.78356 6.1581231,6.2268545 0 0 0 4.680174,3.48704 h 0.862137 a 6.1581231,6.2268545 0 0 0 4.618593,-2.11713 l 43.106864,-49.37895 23.83193,30.07571 a 6.1581231,6.2268545 0 0 0 8.80612,0.80948 l 23.21612,-19.80139 20.56813,17.80881 a 6.1581231,6.2268545 0 0 0 6.46603,0.99629 24.263005,24.533807 0 0 1 14.7795,-1.61898 6.1581231,6.2268545 0 0 0 7.38974,-6.22685 V 61.366166 A 18.474369,18.680563 0 0 0 201.95492,42.685603 Z"
         class="color56aaff svgShape"
         id="path11"
         style="stroke-width:6.19239" />
      <path
         fill="#2cb978"
         d="M 199.73799,127.74444 175.1055,106.44859 a 6.1581231,6.2268545 0 0 0 -8.00556,0 l -22.23082,19.24098 -24.63249,-31.134272 a 6.1581231,6.2268545 0 0 0 -4.49543,-2.05486 6.1581231,6.2268545 0 0 0 -4.74176,2.11713 L 62.966081,149.53842 a 6.1581231,6.2268545 0 0 0 -0.9853,6.66274 18.474369,18.680563 0 0 0 16.811677,11.02153 h 98.529962 a 6.1581231,6.2268545 0 0 0 6.15813,-6.22686 24.632493,24.907418 0 0 1 7.205,-17.62199 23.955099,24.222464 0 0 1 7.51291,-5.16829 6.1581231,6.2268545 0 0 0 1.60111,-10.46111 z"
         class="color0478ed svgShape"
         id="path13"
         style="stroke-width:6.19239" />
      <path
         fill="#83e85a"
         d="m 229.91279,183.0389 a 30.82951,31.173601 0 0 1 -43.59951,-44.08613 30.113222,30.449318 0 0 1 9.42193,-6.22685 30.790616,31.134272 0 0 1 34.17758,6.22685 30.790616,31.134272 0 0 1 0,44.08613 z"
         class="colorfff svgShape"
         id="path15"
         style="stroke-width:6.19239" />
      <path
         fill="#107a8b"
         d="m 208.11304,198.35696 a 36.948739,37.361127 0 0 1 -26.17202,-63.76298 36.948739,37.361127 0 0 1 52.28246,0 36.948739,37.361127 0 0 1 0,52.86599 v 0 a 36.948739,37.361127 0 0 1 -26.11044,10.89699 z m 0,-62.26854 a 24.632493,24.907418 0 0 0 -17.36591,7.28542 24.632493,24.907418 0 0 0 0,35.30626 24.667973,24.943294 0 1 0 34.85498,-35.30626 24.01668,24.284732 0 0 0 -12.31625,-6.725 24.632493,24.907418 0 0 0 -5.17282,-0.56042 z m 21.86134,46.95048 z"
         class="color56aaff svgShape"
         id="path17"
         style="stroke-width:6.19239" />
      <path
         fill="#107a8b"
         d="m 186.31328,189.26575 a 6.1581231,6.2268545 0 0 1 -4.37226,-10.64792 l 43.53793,-44.02385 a 6.1581231,6.2268545 0 0 1 8.68295,8.77986 l -43.53793,44.02386 a 6.1581231,6.2268545 0 0 1 -4.31069,1.86805 z"
         class="color56aaff svgShape"
         id="path19"
         style="stroke-width:6.19239" />
      <ellipse
         cx="152.68994"
         cy="80.04673"
         fill="#83e85a"
         class="colorfff svgShape"
         id="circle21"
         rx="12.316246"
         ry="12.453709"
         style="stroke-width:6.19239" />
    </g>
  </g>
  <text
     xml:space="preserve"
     style="font-size:29.3333px;line-height:1.25;font-family:sans-serif;fill:#2cb978;fill-opacity:1"
     x="73.230743"
     y="208.77855"
     id="text54"><tspan
       sodipodi:role="line"
       id="tspan52"
       x="73.230743"
       y="208.77855"
       style="font-style:normal;font-variant:normal;font-weight:normal;font-stretch:normal;font-size:29.3333px;font-family:'Arial Rounded MT Bold';-inkscape-font-specification:'Arial Rounded MT Bold, ';fill:#2cb978;fill-opacity:1">No Image</tspan></text>
</svg>
